HIERARCHY
ROOT Hips
{
	OFFSET -0.001795 -0.223333 0.028219
	CHANNELS 6 Xposition Yposition Zposition Zrotation Yrotation Xrotation 
	JOINT LeftUpLeg
	{
		OFFSET 0.069520 -0.091406 -0.006815
		CHANNELS 3 Zrotation Yrotation Xrotation
		JOINT LeftLeg
		{
			OFFSET 0.034277 -0.375199 -0.004496
			CHANNELS 3 Zrotation Yrotation Xrotation
			JOINT LeftFoot
			{
				OFFSET -0.013596 -0.397961 -0.043693
				CHANNELS 3 Zrotation Yrotation Xrotation
				JOINT LeftToe
				{
					OFFSET 0.026358 -0.055791 0.119288
					CHANNELS 3 Zrotation Yrotation Xrotation
					End Site
					{
						OFFSET 0.000000 0.000000 0.000000
					}
				}
			}
		}
	}
	JOINT RightUpLeg
	{
		OFFSET -0.067670 -0.090522 -0.004320
		CHANNELS 3 Zrotation Yrotation Xrotation
		JOINT RightLeg
		{
			OFFSET -0.038290 -0.382569 -0.008850
			CHANNELS 3 Zrotation Yrotation Xrotation
			JOINT RightFoot
			{
				OFFSET 0.015774 -0.398415 -0.042312
				CHANNELS 3 Zrotation Yrotation Xrotation
				JOINT RightToe
				{
					OFFSET -0.025372 -0.048144 0.123348
					CHANNELS 3 Zrotation Yrotation Xrotation
					End Site
					{
						OFFSET 0.000000 0.000000 0.000000
					}
				}
			}
		}
	}
	JOINT Spine
	{
		OFFSET -0.002533 0.108963 -0.026696
		CHANNELS 3 Zrotation Yrotation Xrotation
		JOINT Spine1
		{
			OFFSET 0.005487 0.135180 0.001092
			CHANNELS 3 Zrotation Yrotation Xrotation
			JOINT Spine2
			{
				OFFSET 0.001457 0.052922 0.025425
				CHANNELS 3 Zrotation Yrotation Xrotation
				JOINT Neck
				{
					OFFSET -0.002778 0.213870 -0.042857
					CHANNELS 3 Zrotation Yrotation Xrotation
					JOINT Head
					{
						OFFSET 0.005152 0.064970 0.051349
						CHANNELS 3 Zrotation Yrotation Xrotation
						End Site
						{
							OFFSET 0.000000 0.000000 0.000000
						}
					}
				}
				JOINT LeftShoulder
				{
					OFFSET 0.078845 0.121749 -0.034090
					CHANNELS 3 Zrotation Yrotation Xrotation
					JOINT LeftArm
					{
						OFFSET 0.090977 0.030469 -0.008868
						CHANNELS 3 Zrotation Yrotation Xrotation
						JOINT LeftForeArm
						{
							OFFSET 0.259612 -0.012772 -0.027456
							CHANNELS 3 Zrotation Yrotation Xrotation
							JOINT LeftHand
							{
								OFFSET 0.249234 0.008986 -0.001171
								CHANNELS 3 Zrotation Yrotation Xrotation
								End Site
								{
									OFFSET 0.000000 0.000000 0.000000
								}
							}
						}
					}
				}
				JOINT RightShoulder
				{
					OFFSET -0.081759 0.118833 -0.038615
					CHANNELS 3 Zrotation Yrotation Xrotation
					JOINT RightArm
					{
						OFFSET -0.096012 0.032551 -0.009143
						CHANNELS 3 Zrotation Yrotation Xrotation
						JOINT RightForeArm
						{
							OFFSET -0.253742 -0.013329 -0.021401
							CHANNELS 3 Zrotation Yrotation Xrotation
							JOINT RightHand
							{
								OFFSET -0.255298 0.007772 -0.005559
								CHANNELS 3 Zrotation Yrotation Xrotation
								End Site
								{
									OFFSET 0.000000 0.000000 0.000000
								}
							}
						}
					}
				}
			}
		}
	}
}
MOTION
Frames: 7
Frame Time: 0.050000
-0.030157 0.387212 -0.013144 -5.884003 -28.091063 -13.644811 9.330992 1.011135 -8.315062 20.604581 -28.938539 129.125533 -28.715400 -37.668480 20.560739 0.000000 0.000000 0.000000 1.347677 0.830214 -7.676289 17.671942 -0.022688 136.469425 -3.341219 -8.518438 10.390101 0.000000 0.000000 0.000000 11.088423 -1.481373 27.470206 -19.959889 5.786909 -23.891886 11.956374 3.854851 21.447739 5.598277 -2.908870 -27.982382 0.000000 0.000000 0.000000 -58.866266 -16.280044 19.487908 -4.460285 -15.970571 -1.430443 8.731810 -40.628992 -2.979924 0.000000 0.000000 0.000000 58.895909 5.191153 -10.666137 12.343886 1.088962 -0.694495 -11.555041 58.071961 -3.906782 0.000000 0.000000 0.000000 
-0.026768 0.399588 -0.015133 -5.898746 -27.717684 -12.898235 8.765631 0.873047 -8.243102 20.051685 -27.232433 128.848597 -24.619117 -39.498183 13.373815 0.000000 0.000000 0.000000 1.429174 0.789015 -7.358510 17.499219 0.959884 135.463378 -3.297781 -8.456007 7.132247 0.000000 0.000000 0.000000 11.380019 -1.570801 27.735808 -20.154039 5.994108 -23.012245 12.024893 3.709177 20.818998 6.407497 -3.162923 -29.074825 0.000000 0.000000 0.000000 -59.022371 -15.618844 18.792125 -4.620335 -15.291741 -1.399232 6.886571 -36.613628 -1.972958 0.000000 0.000000 0.000000 59.463399 4.852110 -11.144680 12.671233 0.780431 -0.715857 -11.465526 53.934782 -3.502839 0.000000 0.000000 0.000000 
-0.022950 0.409870 -0.017409 -5.848686 -27.291593 -12.255706 8.481297 0.796574 -8.404162 19.290938 -25.245603 128.611258 -20.512939 -40.331712 6.827695 0.000000 0.000000 0.000000 1.559378 0.753749 -7.070379 17.451184 1.079690 134.514867 -3.407637 -8.723994 4.838923 0.000000 0.000000 0.000000 11.904683 -1.702092 28.270053 -20.723261 6.155917 -23.434729 12.145383 2.970723 21.046456 6.236543 -3.068250 -29.835417 0.000000 0.000000 0.000000 -59.543160 -14.967365 18.624695 -4.942823 -14.995043 -1.446783 6.781701 -32.741683 -1.684356 0.000000 0.000000 0.000000 60.039984 4.898280 -11.609767 12.654263 -0.144935 -0.749834 -10.115141 50.481057 -2.550598 0.000000 0.000000 0.000000 
-0.018950 0.418196 -0.019499 -5.413301 -26.799499 -12.010920 8.142407 0.717994 -8.736910 18.608395 -24.079745 128.793114 -15.864110 -41.472108 -0.785955 0.000000 0.000000 0.000000 1.089603 0.668910 -6.496615 17.212543 1.664152 133.889778 -3.292561 -8.464297 1.569378 0.000000 0.000000 0.000000 12.484531 -1.847096 29.076145 -21.367950 6.233198 -24.498171 12.104062 2.399296 22.106437 6.249696 -3.000102 -31.299521 0.000000 0.000000 0.000000 -60.109716 -14.683774 18.759566 -5.124956 -15.007662 -1.503396 6.562707 -29.893392 -1.444559 0.000000 0.000000 0.000000 60.774407 4.443503 -12.483188 12.413751 -0.417859 -0.755503 -9.522958 47.413357 -2.066582 0.000000 0.000000 0.000000 
-0.015472 0.424342 -0.021078 -4.916389 -26.747043 -11.790166 7.982419 0.686899 -8.913427 18.811357 -23.677036 128.092870 -13.965285 -42.840685 -4.382556 0.000000 0.000000 0.000000 0.696647 0.624816 -6.196824 17.251614 1.850494 133.428634 -3.819459 -9.819945 -0.332870 0.000000 0.000000 0.000000 13.024864 -1.952377 29.876715 -22.519564 6.585478 -25.022917 12.317957 1.481926 22.286813 6.076938 -2.972073 -31.917090 0.000000 0.000000 0.000000 -60.806275 -13.780548 18.510026 -5.124611 -14.740995 -1.544131 6.427569 -28.680659 -1.371127 0.000000 0.000000 0.000000 60.928857 4.533070 -13.061435 12.418698 -1.086305 -0.753962 -7.823025 44.242131 -1.207184 0.000000 0.000000 0.000000 
-0.012741 0.429749 -0.022031 -4.504146 -26.461684 -11.646256 7.794254 0.640433 -8.976970 18.837632 -23.231459 127.497894 -10.808971 -43.203024 -9.421863 0.000000 0.000000 0.000000 0.169653 0.526042 -5.374894 16.938553 3.119538 132.681500 -3.703414 -9.555433 -2.603881 0.000000 0.000000 0.000000 13.547846 -2.074396 30.453252 -22.910442 6.639544 -25.580793 12.090234 1.388843 23.297547 6.200519 -3.000714 -32.584926 0.000000 0.000000 0.000000 -61.627423 -13.639869 18.452915 -4.913644 -15.012428 -1.550999 6.242874 -27.999453 -1.291444 0.000000 0.000000 0.000000 61.829752 4.591223 -13.127837 12.039691 -1.001669 -0.747361 -7.072694 41.237504 -0.817953 0.000000 0.000000 0.000000 
-0.010759 0.432911 -0.022831 -4.233452 -26.277477 -11.698414 7.639384 0.604325 -8.906712 19.022900 -23.129893 126.829047 -10.092563 -43.243516 -10.612125 0.000000 0.000000 0.000000 -0.159780 0.488926 -5.028230 16.771004 3.571296 132.388657 -3.750562 -9.701762 -3.890587 0.000000 0.000000 0.000000 14.182888 -2.210315 31.126729 -23.553911 6.967327 -25.236104 12.150747 0.506524 22.621322 5.502085 -2.714771 -32.463342 0.000000 0.000000 0.000000 -62.182786 -13.111221 18.421368 -4.888347 -14.881596 -1.570750 6.512179 -26.930568 -1.315947 0.000000 0.000000 0.000000 61.477608 4.788855 -13.387284 12.359979 -1.812526 -0.763947 -6.246014 39.095502 -0.496255 0.000000 0.000000 0.000000 
